<svg id="Layer_1" data-name="Layer 1" xmlns="http://www.w3.org/2000/svg" width="254" height="92" viewBox="0 0 254 92"><defs><style>.cls-1{fill:none;stroke:#000;stroke-miterlimit:10;stroke-width:2px;}</style></defs><title>logo</title><path d="M31.11,39.72l1-2a12.38,12.38,0,0,0,8.31,3.06c4.72,0,6.77-2,6.77-4.46,0-6.92-15.51-2.67-15.51-12,0-3.71,2.88-6.91,9.28-6.91a14.22,14.22,0,0,1,7.81,2.23l-.89,2.12A13,13,0,0,0,41,19.64c-4.6,0-6.66,2.05-6.66,4.57,0,6.91,15.52,2.73,15.52,11.91,0,3.71-3,6.88-9.4,6.88C36.68,43,33,41.67,31.11,39.72Z" transform="translate(-9 -5)"/><path d="M71.46,36.05h-14l-3,6.73H51.62l11.52-25.2h2.63l11.52,25.2H74.48Zm-1-2.16-6-13.53-6,13.53Z" transform="translate(-9 -5)"/><path d="M98.67,42.78l-5.75-8.1a18.51,18.51,0,0,1-2,.11H84.13v8H81.47V17.58H90.9c6.41,0,10.29,3.24,10.29,8.64a7.81,7.81,0,0,1-5.75,7.92l6.15,8.64Zm-.14-16.56c0-4-2.66-6.33-7.7-6.33h-6.7V32.52h6.7C95.87,32.52,98.53,30.18,98.53,26.22Z" transform="translate(-9 -5)"/><path d="M123.3,36.05h-14l-3,6.73h-2.78L115,17.58h2.63l11.52,25.2h-2.81Zm-1-2.16-6-13.53-6,13.53Z" transform="translate(-9 -5)"/><path d="M154.37,17.58v25.2h-2.63V31.15H136V42.78h-2.66V17.58H136V28.81h15.77V17.58Z" transform="translate(-9 -5)"/><path d="M53.2,55.1H63.45c8.07,0,13.5,5.18,13.5,12.6s-5.43,12.6-13.5,12.6H53.2ZM63.31,78c6.7,0,11-4.24,11-10.29S70,57.4,63.31,57.4H55.86V78Z" transform="translate(-9 -5)"/><path d="M98.37,73.57h-14l-3,6.73H78.54L90.06,55.1h2.63L104.2,80.3h-2.8Zm-1-2.16L91.35,57.87l-6,13.54Z" transform="translate(-9 -5)"/><path d="M128,55.1,116.88,80.3h-2.63L103.09,55.1H106L115.62,77l9.72-21.89Z" transform="translate(-9 -5)"/><path d="M131.67,55.1h2.67V80.3h-2.67Z" transform="translate(-9 -5)"/><path d="M142.55,55.1h10.26c8.06,0,13.49,5.18,13.49,12.6s-5.43,12.6-13.49,12.6H142.55ZM152.66,78c6.7,0,11-4.24,11-10.29s-4.32-10.3-11-10.3h-7.45V78Z" transform="translate(-9 -5)"/><path d="M169.87,77.24l1-2a12.41,12.41,0,0,0,8.32,3.06c4.71,0,6.77-2,6.77-4.47,0-6.91-15.52-2.66-15.52-12,0-3.71,2.88-6.92,9.29-6.92a14.19,14.19,0,0,1,7.81,2.24l-.9,2.12a13,13,0,0,0-6.91-2.09c-4.61,0-6.66,2.05-6.66,4.57,0,6.91,15.51,2.74,15.51,11.92,0,3.71-3,6.87-9.39,6.87C175.45,80.51,171.74,79.18,169.87,77.24Z" transform="translate(-9 -5)"/><path d="M212.24,78V80.3H194.42V55.1H211.7v2.3H197.08v9h13v2.26h-13V78Z" transform="translate(-9 -5)"/><path d="M239.56,55.1V80.3h-2.19l-16.2-20.45V80.3H218.5V55.1h2.2l16.23,20.45V55.1Z" transform="translate(-9 -5)"/><rect class="cls-1" x="1" y="1" width="252" height="90"/></svg>
