<?xml version="1.0" standalone="no"?>
<!DOCTYPE svg PUBLIC "-//W3C//DTD SVG 20010904//EN"
 "http://www.w3.org/TR/2001/REC-SVG-20010904/DTD/svg10.dtd">
<svg version="1.0" xmlns="http://www.w3.org/2000/svg"
 width="271.000000pt" height="271.000000pt" viewBox="0 0 271.000000 271.000000"
 preserveAspectRatio="xMidYMid meet">
<metadata>
Created by potrace 1.11, written by Peter Selinger 2001-2013
</metadata>
<g transform="translate(0.000000,271.000000) scale(0.100000,-0.100000)"
fill="#000000" stroke="none">
<path d="M12 2701 c-9 -7 -11 -2690 -3 -2692 19 -4 2684 -3 2690 1 8 6 9 2689
1 2691 -15 5 -2682 4 -2688 0z m2584 -104 c9 -8 12 -2486 4 -2488 -3 -1 -562
-2 -1243 -3 -816 -1 -1241 2 -1246 9 -5 8 -8 2434 -2 2480 1 12 2475 14 2487
2z"/>
<path d="M696 1873 c-129 -38 -198 -130 -190 -254 8 -122 87 -183 309 -240
203 -52 251 -91 246 -201 -1 -37 -47 -87 -100 -110 -33 -15 -70 -20 -131 -21
-101 -1 -171 18 -254 68 -32 19 -60 34 -62 32 -2 -2 -10 -19 -18 -39 l-15 -36
37 -25 c93 -65 205 -92 345 -85 186 10 296 102 297 247 0 101 -54 172 -161
212 -27 11 -93 31 -147 45 -53 14 -116 32 -139 41 -142 53 -150 204 -14 271
47 23 67 26 140 25 86 -1 172 -24 229 -61 21 -14 23 -13 37 22 21 50 20 51
-30 75 -110 51 -271 66 -379 34z"/>
<path d="M1370 1425 l0 -455 223 0 c242 0 307 9 398 56 153 77 242 239 233
424 -9 207 -135 360 -338 413 -43 12 -118 16 -287 17 l-229 1 0 -456z m456
361 c74 -14 135 -44 197 -96 34 -28 76 -106 91 -165 55 -218 -68 -417 -284
-461 -41 -8 -360 -12 -361 -4 -1 3 -2 166 -3 363 -1 283 2 360 12 366 15 8
302 6 348 -3z"/>
</g>
</svg>
